<svg width="37" height="37" viewBox="0 0 37 37" fill="none" xmlns="http://www.w3.org/2000/svg">
<path d="M26.1538 3.0769H10.7692C6.52087 3.0769 3.0769 6.52087 3.0769 10.7692V26.1538C3.0769 30.4022 6.52087 33.8461 10.7692 33.8461H26.1538C30.4022 33.8461 33.8461 30.4022 33.8461 26.1538V10.7692C33.8461 6.52087 30.4022 3.0769 26.1538 3.0769Z" stroke="black" stroke-width="2" stroke-linecap="round" stroke-linejoin="round"/>
<path d="M24.6154 17.4923C24.8053 18.7727 24.5866 20.0803 23.9904 21.2292C23.3943 22.3781 22.451 23.3098 21.2948 23.8918C20.1386 24.4737 18.8284 24.6763 17.5505 24.4706C16.2725 24.265 15.092 23.6616 14.1767 22.7464C13.2614 21.8311 12.6581 20.6505 12.4524 19.3726C12.2468 18.0947 12.4494 16.7844 13.0313 15.6282C13.6132 14.472 14.5449 13.5288 15.6938 12.9326C16.8428 12.3365 18.1504 12.1178 19.4308 12.3077C20.7368 12.5013 21.9459 13.1099 22.8795 14.0435C23.8132 14.9771 24.4217 16.1862 24.6154 17.4923Z" stroke="black" stroke-width="2" stroke-linecap="round" stroke-linejoin="round"/>
<path d="M26.9231 10H26.9381" stroke="black" stroke-width="2" stroke-linecap="round" stroke-linejoin="round"/>
</svg>
