<svg width="33" height="32" viewBox="0 0 33 32" fill="none" xmlns="http://www.w3.org/2000/svg">
<path d="M22.7692 10.8462C25.2174 10.8462 27.5653 11.8187 29.2964 13.5498C31.0275 15.2809 32 17.6288 32 20.077V30.8462H25.8461V20.077C25.8461 19.2609 25.522 18.4783 24.9449 17.9012C24.3679 17.3242 23.5853 17 22.7692 17C21.9532 17 21.1705 17.3242 20.5935 17.9012C20.0165 18.4783 19.6923 19.2609 19.6923 20.077V30.8462H13.5385V20.077C13.5385 17.6288 14.511 15.2809 16.2421 13.5498C17.9732 11.8187 20.3211 10.8462 22.7692 10.8462Z" stroke="black" stroke-width="2" stroke-linecap="round" stroke-linejoin="round"/>
<path d="M7.38456 12.3846H1.23071V30.8462H7.38456V12.3846Z" stroke="black" stroke-width="2" stroke-linecap="round" stroke-linejoin="round"/>
<path d="M4.30764 7.7692C6.00697 7.7692 7.38456 6.39162 7.38456 4.69228C7.38456 2.99294 6.00697 1.61536 4.30764 1.61536C2.6083 1.61536 1.23071 2.99294 1.23071 4.69228C1.23071 6.39162 2.6083 7.7692 4.30764 7.7692Z" stroke="black" stroke-width="2" stroke-linecap="round" stroke-linejoin="round"/>
</svg>
